{
  "accessors": [
    {
      "bufferView": 2,
      "componentType": 5126,
      "count": 25120,
      "max": [
        58.446796417236328,
        -12.461520195007324,
        77.424232482910156
      ],
      "min": [
        -58.446796417236328,
        -14.16154670715332,
        27.765642166137695
      ],
      "type": "VEC3"
    },
    {
      "bufferView": 2,
      "byteOffset": 301440,
      "componentType": 5126,
      "count": 25120,
      "max": [
        0.99916839599609375,
        1,
        1
      ],
      "min": [
        -0.99916839599609375,
        -1,
        -1
      ],
      "type": "VEC3"
    },
    {
      "bufferView": 3,
      "componentType": 5126,
      "count": 25120,
      "max": [
        0.99999988079071045,
        1,
        0.99974226951599121,
        1
      ],
      "min": [
        -0.99999988079071045,
        -1,
        -0.99994903802871704,
        -1
      ],
      "type": "VEC4"
    },
    {
      "bufferView": 1,
      "componentType": 5126,
      "count": 25120,
      "max": [
        0.99355298280715942,
        0.99359399080276489
      ],
      "min": [
        0.0027000000700354576,
        0.0026980000548064709
      ],
      "type": "VEC2"
    },
    {
      "bufferView": 0,
      "componentType": 5125,
      "count": 85344,
      "max": [
        25119
      ],
      "min": [
        0
      ],
      "type": "SCALAR"
    },
    {
      "bufferView": 2,
      "byteOffset": 602880,
      "componentType": 5126,
      "count": 603,
      "max": [
        52.683036804199219,
        33.866004943847656,
        90.118988037109375
      ],
      "min": [
        -52.661117553710938,
        27.366008758544922,
        86.718986511230469
      ],
      "type": "VEC3"
    },
    {
      "bufferView": 2,
      "byteOffset": 610116,
      "componentType": 5126,
      "count": 603,
      "max": [
        1,
        1,
        1
      ],
      "min": [
        -1,
        -1,
        -1
      ],
      "type": "VEC3"
    },
    {
      "bufferView": 1,
      "byteOffset": 200960,
      "componentType": 5126,
      "count": 603,
      "max": [
        0.99161499738693237,
        0.9996650218963623
      ],
      "min": [
        0.00033499998971819878,
        0.00033499998971819878
      ],
      "type": "VEC2"
    },
    {
      "bufferView": 0,
      "byteOffset": 341376,
      "componentType": 5125,
      "count": 1296,
      "max": [
        602
      ],
      "min": [
        0
      ],
      "type": "SCALAR"
    },
    {
      "bufferView": 2,
      "byteOffset": 617352,
      "componentType": 5126,
      "count": 6,
      "max": [
        0.15935200452804565,
        -12.316155433654785,
        14.241669654846191
      ],
      "min": [
        -0.15935200452804565,
        -12.327347755432129,
        13.227974891662598
      ],
      "type": "VEC3"
    },
    {
      "bufferView": 1,
      "byteOffset": 205784,
      "componentType": 5126,
      "count": 6,
      "max": [
        0,
        0
      ],
      "min": [
        0,
        0
      ],
      "type": "VEC2"
    },
    {
      "bufferView": 0,
      "byteOffset": 346560,
      "componentType": 5125,
      "count": 8,
      "max": [
        5
      ],
      "min": [
        0
      ],
      "type": "SCALAR"
    },
    {
      "bufferView": 2,
      "byteOffset": 617424,
      "componentType": 5126,
      "count": 6991,
      "max": [
        72.499481201171875,
        33.526336669921875,
        92.5
      ],
      "min": [
        -72.499481201171875,
        -16.473661422729492,
        -0
      ],
      "type": "VEC3"
    },
    {
      "bufferView": 2,
      "byteOffset": 701316,
      "componentType": 5126,
      "count": 6991,
      "max": [
        1,
        1,
        1
      ],
      "min": [
        -1,
        -1,
        -1
      ],
      "type": "VEC3"
    },
    {
      "bufferView": 3,
      "byteOffset": 401920,
      "componentType": 5126,
      "count": 6991,
      "max": [
        1,
        1,
        1,
        1
      ],
      "min": [
        -1,
        -1,
        -1,
        -1
      ],
      "type": "VEC4"
    },
    {
      "bufferView": 1,
      "byteOffset": 205832,
      "componentType": 5126,
      "count": 6991,
      "max": [
        0.99744898080825806,
        0.98281502723693848
      ],
      "min": [
        0.0024969999212771654,
        0.0024939998984336853
      ],
      "type": "VEC2"
    },
    {
      "bufferView": 0,
      "byteOffset": 346592,
      "componentType": 5125,
      "count": 17352,
      "max": [
        6990
      ],
      "min": [
        0
      ],
      "type": "SCALAR"
    },
    {
      "bufferView": 2,
      "byteOffset": 785208,
      "componentType": 5126,
      "count": 4142,
      "max": [
        68.076454162597656,
        -5.3443808555603027,
        18.455989837646484
      ],
      "min": [
        -68.076454162597656,
        -12.910935401916504,
        0
      ],
      "type": "VEC3"
    },
    {
      "bufferView": 2,
      "byteOffset": 834912,
      "componentType": 5126,
      "count": 4142,
      "max": [
        0.98980998992919922,
        1,
        0.99736893177032471
      ],
      "min": [
        -0.98980695009231567,
        -1,
        -1
      ],
      "type": "VEC3"
    },
    {
      "bufferView": 3,
      "byteOffset": 513776,
      "componentType": 5126,
      "count": 4142,
      "max": [
        1,
        0.99090087413787842,
        1,
        1
      ],
      "min": [
        -1,
        -1,
        -0.99875658750534058,
        -1
      ],
      "type": "VEC4"
    },
    {
      "bufferView": 1,
      "byteOffset": 261760,
      "componentType": 5126,
      "count": 4142,
      "max": [
        0.98789799213409424,
        0.99750500917434692
      ],
      "min": [
        0.0025019999593496323,
        0.0024949999060481787
      ],
      "type": "VEC2"
    },
    {
      "bufferView": 0,
      "byteOffset": 416000,
      "componentType": 5125,
      "count": 14832,
      "max": [
        4141
      ],
      "min": [
        0
      ],
      "type": "SCALAR"
    }
  ],
  "asset": {
    "extras": {
      "author": "Interiors3D (https://sketchfab.com/Interiors3D)",
      "license": "CC-BY-4.0 (http://creativecommons.org/licenses/by/4.0/)",
      "source": "https://sketchfab.com/3d-models/ppa500-0630985e14764f5c95725558bc58296c",
      "title": "PPA500"
    },
    "generator": "Sketchfab-8.91.0",
    "version": "2.0"
  },
  "bufferViews": [
    {
      "buffer": 0,
      "byteLength": 475328,
      "byteOffset": 0,
      "name": "floatBufferViews",
      "target": 34963
    },
    {
      "buffer": 0,
      "byteLength": 294896,
      "byteOffset": 475328,
      "byteStride": 8,
      "name": "floatBufferViews",
      "target": 34962
    },
    {
      "buffer": 0,
      "byteLength": 884616,
      "byteOffset": 770224,
      "byteStride": 12,
      "name": "floatBufferViews",
      "target": 34962
    },
    {
      "buffer": 0,
      "byteLength": 580048,
      "byteOffset": 1654840,
      "byteStride": 16,
      "name": "floatBufferViews",
      "target": 34962
    }
  ],
  "buffers": [
    {
      "byteLength": 2234888,
      "uri": "scene.bin"
    }
  ],
  "images": [
    {
      "uri": "textures/Metal_baseColor.jpeg"
    },
    {
      "uri": "textures/Metal_metallicRoughness.png"
    },
    {
      "uri": "textures/Metal_normal.png"
    },
    {
      "uri": "textures/Romance.001_baseColor.jpeg"
    },
    {
      "uri": "textures/Romance.001_metallicRoughness.png"
    },
    {
      "uri": "textures/Romance.001_normal.png"
    }
  ],
  "materials": [
    {
      "doubleSided": true,
      "name": "Metal",
      "normalTexture": {
        "index": 2,
        "scale": 1,
        "texCoord": 0
      },
      "pbrMetallicRoughness": {
        "baseColorFactor": [
          1,
          1,
          1,
          1
        ],
        "baseColorTexture": {
          "index": 0,
          "texCoord": 0
        },
        "metallicFactor": 1,
        "metallicRoughnessTexture": {
          "index": 1,
          "texCoord": 0
        },
        "roughnessFactor": 1
      }
    },
    {
      "doubleSided": true,
      "emissiveFactor": [
        0,
        0,
        0
      ],
      "name": "Metal2",
      "pbrMetallicRoughness": {
        "baseColorFactor": [
          0.401978,
          0.401978,
          0.401978,
          1
        ],
        "metallicFactor": 0,
        "roughnessFactor": 0.77100121745190964
      }
    },
    {
      "doubleSided": true,
      "name": "Romance.001",
      "normalTexture": {
        "index": 5,
        "scale": 1,
        "texCoord": 0
      },
      "pbrMetallicRoughness": {
        "baseColorFactor": [
          1,
          1,
          1,
          1
        ],
        "baseColorTexture": {
          "index": 3,
          "texCoord": 0
        },
        "metallicFactor": 0,
        "metallicRoughnessTexture": {
          "index": 4,
          "texCoord": 0
        },
        "roughnessFactor": 1
      }
    }
  ],
  "meshes": [
    {
      "primitives": [
        {
          "attributes": {
            "NORMAL": 1,
            "POSITION": 0,
            "TANGENT": 2,
            "TEXCOORD_0": 3
          },
          "indices": 4,
          "material": 0,
          "mode": 4
        }
      ]
    },
    {
      "primitives": [
        {
          "attributes": {
            "NORMAL": 6,
            "POSITION": 5,
            "TEXCOORD_0": 7
          },
          "indices": 8,
          "material": 1,
          "mode": 4
        }
      ]
    },
    {
      "primitives": [
        {
          "attributes": {
            "POSITION": 9,
            "TEXCOORD_0": 10
          },
          "indices": 11,
          "material": 2,
          "mode": 1
        }
      ]
    },
    {
      "primitives": [
        {
          "attributes": {
            "NORMAL": 13,
            "POSITION": 12,
            "TANGENT": 14,
            "TEXCOORD_0": 15
          },
          "indices": 16,
          "material": 2,
          "mode": 4
        }
      ]
    },
    {
      "primitives": [
        {
          "attributes": {
            "NORMAL": 18,
            "POSITION": 17,
            "TANGENT": 19,
            "TEXCOORD_0": 20
          },
          "indices": 21,
          "material": 2,
          "mode": 4
        }
      ]
    }
  ],
  "nodes": [
    {
      "children": [
        1
      ],
      "name": "RootNode (gltf orientation matrix)",
      "rotation": [
        -0.70710678118654746,
        -0,
        -0,
        0.70710678118654757
      ]
    },
    {
      "children": [
        2
      ],
      "name": "RootNode (model correction matrix)"
    },
    {
      "children": [
        3,
        4,
        5,
        6,
        7
      ],
      "name": "W26 - PPA500 - Sketchfab - mesh.obj.cleaner.materialmerger.gles"
    },
    {
      "mesh": 0,
      "name": ""
    },
    {
      "mesh": 1,
      "name": ""
    },
    {
      "mesh": 2,
      "name": ""
    },
    {
      "mesh": 3,
      "name": ""
    },
    {
      "mesh": 4,
      "name": ""
    }
  ],
  "samplers": [
    {
      "magFilter": 9729,
      "minFilter": 9987,
      "wrapS": 10497,
      "wrapT": 10497
    }
  ],
  "scene": 0,
  "scenes": [
    {
      "name": "OSG_Scene",
      "nodes": [
        0
      ]
    }
  ],
  "textures": [
    {
      "sampler": 0,
      "source": 0
    },
    {
      "sampler": 0,
      "source": 1
    },
    {
      "sampler": 0,
      "source": 2
    },
    {
      "sampler": 0,
      "source": 3
    },
    {
      "sampler": 0,
      "source": 4
    },
    {
      "sampler": 0,
      "source": 5
    }
  ]
}

